<?xml version="1.0"?>
<svg xmlns="http://www.w3.org/2000/svg" width="150" height="46" viewBox="0 0 150 46"><path fill="#203773" fill-rule="evenodd" d="M146.36 28.487c1.079 0 1.761-.044 2.729-.154h.088c.198 0 .374.11.374.33v.792c0 .286-.088.418-.44.484-.726.132-1.716.242-2.751.242-2.992 0-4.686-2.112-4.686-5.346v-1.717c0-3.234 1.672-5.346 4.686-5.346 1.013 0 2.025.11 2.751.242.352.066.44.176.44.484v.792c0 .22-.176.33-.374.33h-.088c-.968-.11-1.65-.154-2.729-.154-1.76 0-2.75 1.166-2.75 3.652v1.717c0 2.464.968 3.652 2.75 3.652zm-14.718-3.894v.308c0 2.618 1.034 3.586 3.059 3.586 1.276 0 2.904-.088 3.916-.242h.11c.176 0 .352.088.352.308v.748c0 .286-.088.44-.44.506a19.951 19.951 0 0 1-3.938.374c-2.531 0-4.995-1.188-4.995-5.28V22.92c0-3.146 1.738-5.148 4.885-5.148 3.212 0 4.84 2.024 4.84 5.148v1.188c0 .287-.154.485-.418.485h-7.371zm5.831-1.673c0-2.486-.946-3.454-2.882-3.454-1.893 0-2.949 1.078-2.949 3.454v.198h5.831v-.198zm-12.386.748c1.826 1.079 2.42 2.025 2.42 3.323 0 2.244-1.65 3.19-4.114 3.19-.814 0-2.399-.066-3.477-.33-.286-.066-.462-.198-.462-.44v-.77c0-.198.176-.33.396-.33h.088c1.056.132 2.663.242 3.455.242 1.43 0 2.178-.374 2.178-1.562 0-.66-.396-1.078-1.65-1.826l-2.223-1.321c-1.342-.814-2.244-1.76-2.244-3.146 0-2.288 1.716-2.926 3.983-2.926 1.232 0 2.398.11 3.432.286.286.044.418.198.418.44v.726c0 .264-.154.374-.374.374h-.066c-.77-.066-2.178-.176-3.41-.176-1.232 0-2.047.154-2.047 1.276 0 .66.507 1.078 1.519 1.672l2.178 1.298zm-7.722-3.476c-1.078 0-2.024.33-2.838.77v8.603c0 .242-.198.462-.44.462h-2.663a.48.48 0 0 1-.462-.462V17.86c0-.242.198-.44.44-.44h2.619c.242 0 .44.198.44.44v.44c.814-.682 1.914-1.057 2.97-1.057.242 0 .44.199.44.441v2.09c0 .198-.132.418-.33.418h-.176zm-16.192 4.643v.044c0 1.254.528 2.398 2.266 2.398 1.386 0 3.345-.11 4.225-.198h.066c.242 0 .418.11.418.352v1.672c0 .352-.088.506-.462.594-1.408.352-2.597.528-4.511.528-2.662 0-5.523-1.408-5.523-5.654V23.03c0-3.542 2.069-5.787 5.567-5.787 3.609 0 5.435 2.465 5.435 5.787v1.277c0 .33-.176.528-.462.528h-7.019zm4.004-2.289c0-1.628-.748-2.442-1.98-2.442-1.21 0-2.024.836-2.024 2.442v.088h4.004v-.088zm-14.96 7.679c-.44 0-1.166-.066-1.804-.154v3.807c0 .242-.198.44-.44.44h-2.662c-.242 0-.462-.198-.462-.44V18.454c0-.352.088-.506.682-.638a20.67 20.67 0 0 1 4.686-.573c3.565 0 5.523 2.069 5.523 5.633v1.717c0 3.454-1.804 5.632-5.523 5.632zm1.959-7.349c0-1.562-.396-2.684-1.959-2.684-.726 0-1.386.044-1.804.11v6.865a16.58 16.58 0 0 0 1.804.132c1.563 0 1.959-1.166 1.959-2.706v-1.717zm-15.092 7.349c-.44 0-1.166-.066-1.804-.154v3.807c0 .242-.198.44-.441.44h-2.662c-.242 0-.462-.198-.462-.44V18.454c0-.352.088-.506.682-.638a20.68 20.68 0 0 1 4.687-.573c3.564 0 5.523 2.069 5.523 5.633v1.717c0 3.454-1.805 5.632-5.523 5.632zm1.958-7.349c0-1.562-.396-2.684-1.958-2.684-.726 0-1.386.044-1.804.11v6.865a16.58 16.58 0 0 0 1.804.132c1.562 0 1.958-1.166 1.958-2.706v-1.717zm-17.116 1.959v.044c0 1.254.528 2.398 2.266 2.398 1.386 0 3.344-.11 4.225-.198h.066c.242 0 .418.11.418.352v1.672c0 .352-.088.506-.462.594-1.409.352-2.597.528-4.511.528-2.663 0-5.523-1.408-5.523-5.654V23.03c0-3.542 2.068-5.787 5.567-5.787 3.608 0 5.435 2.465 5.435 5.787v1.277c0 .33-.176.528-.462.528h-7.019zm4.004-2.289c0-1.628-.748-2.442-1.98-2.442-1.21 0-2.024.836-2.024 2.442v.088h4.004v-.088zm-14.96 7.679c-.44 0-1.166-.066-1.804-.154v3.807c0 .242-.198.44-.44.44h-2.662c-.243 0-.463-.198-.463-.44V18.454c0-.352.088-.506.683-.638a20.67 20.67 0 0 1 4.686-.573c3.565 0 5.523 2.069 5.523 5.633v1.717c0 3.454-1.804 5.632-5.523 5.632zm1.958-7.349c0-1.562-.396-2.684-1.958-2.684-.726 0-1.386.044-1.804.11v6.865a16.58 16.58 0 0 0 1.804.132c1.562 0 1.958-1.166 1.958-2.706v-1.717z"></path><path fill="#DA112D" fill-rule="evenodd" d="M30.354 3.118c-.809.489-1.791.339-2.193-.336-.003-.006-.431-.578-1.579-.69-.507-.049-1.291-.009-2.396.315-.117-.517-.301-.069-.568-.513a4.756 4.756 0 0 0-.906-1.086c1.75-.641 3.339-.917 4.737-.781 2.576.251 3.54 1.75 3.641 1.921.402.675.073.68-.736 1.17zm-7.708 3.307c-.962 1.914-3.235 2.677-5.385 3.283C5.333 13.369 3.43 24.699 1.91 27.724c-.173.346-.323.658-.459.928-.528 1.052-.837 1.476-1.447.822.256-19.12 10.8-25.577 14.491-27.164C17.853.865 21.41.1 23.008 2.852c.429 1.117.236 2.382-.362 3.573z"></path><path fill="#203773" fill-rule="evenodd" d="M34 30c.072 0-.054.054 0 0zm-2.577 13.477c1.383 1.227 1.921 1.739 1.777 2.201-.1.322-.629.322-.629.322-6.569 0-10.074-2.044-10.419-6.079-.526-6.148-2.531-8.376-3.754-8.376a.968.968 0 0 0-.748.356c-.334.387-.484 1.045-.41 1.815.297 3.002-.008 3.594-1.453 5.262a6.398 6.398 0 0 1-4.776 2.19c-.638 0-1.239-.106-1.738-.302-.397-.157-.634-.395-.703-.709-.161-.717.624-1.586 1.616-2.685 1.451-1.605 2.954-1.73 2.008-3.548-1.002-1.919-1.575-4.566-1.575-7.266 0-6.07 5.245-11.004 11.689-11.004 6.432 0 11.677 4.925 11.689 10.98L34 30H24c1.193 6.812 7.329 13.394 7.423 13.477zM17.347 15.396a12.918 12.918 0 0 0-3.874 2.424.278.278 0 0 1-.34.02c-.816-.579-1.651-.969-2.484-1.16a.28.28 0 0 1-.203-.186.303.303 0 0 1 .046-.277c1.66-2.162 3.992-3.694 6.566-4.315a.265.265 0 0 1 .246.066.298.298 0 0 1 .092.25c-.1.873-.058 1.834.125 2.855a.291.291 0 0 1-.174.323z"></path></svg>